<?xml version="1.0" encoding="UTF-8" standalone="no"?>
<svg
   version="1.1"
   width="1000"
   height="1000"
   id="svg1"
   xml:space="preserve"
   xmlns="http://www.w3.org/2000/svg"
   xmlns:svg="http://www.w3.org/2000/svg"><defs
     id="defs1" /><path
     d="m 499.5,-0.3125 c 1.43039,0.002223 2.86078,0.004399 4.29117,0.006531 C 524.00955,-0.264219 543.95954,0.05996421 564,3 c 1.46608,0.2065589 2.93223,0.4125869 4.39844,0.6181641 C 617.46089,10.576601 664.98816,24.177568 710,45 c 1.54833,0.707454 1.54833,0.707454 3.12793,1.429199 C 728.99938,53.704639 744.07806,61.947202 759,71 c 0.93924,0.563965 1.87849,1.12793 2.84619,1.708984 10.88722,6.542588 21.42052,13.346864 31.52197,21.051758 1.54067,1.170022 3.09753,2.31864 4.65528,3.46582 15.70756,11.580648 31.58832,23.948078 45.1914,37.984378 1.83665,1.84066 3.74872,3.53461 5.72266,5.22656 6.51816,5.62351 12.47252,11.75209 18.06641,18.28906 2.01873,2.29922 4.10393,4.5276 6.2019,6.7544 6.21269,6.61442 11.86113,13.52322 17.38794,20.71435 1.43446,1.8409 2.89843,3.65368 4.375,5.46094 C 902.1543,200.45573 908.72488,209.53172 915,219 c 0.44167,0.66193 0.88333,1.32387 1.33838,2.00586 C 959.62873,286.05992 986.31341,358.70537 997,436 c 0.16516,1.13421 0.33032,2.26843 0.50049,3.43701 5.59181,39.9294 5.34811,84.69634 -0.50049,124.56299 -0.20656,1.46607 -0.41259,2.93222 -0.61816,4.39844 C 989.4234,617.46089 975.82243,664.98816 955,710 c -0.47164,1.03222 -0.94327,2.06443 -1.4292,3.12793 C 946.29536,728.99938 938.0528,744.07806 929,759 c -0.56396,0.93924 -1.12793,1.87849 -1.70898,2.84619 -6.54259,10.88722 -13.34687,21.42052 -21.05176,31.52197 -1.17002,1.54067 -2.31864,3.09753 -3.46582,4.65528 -11.58065,15.70756 -23.94808,31.58832 -37.98438,45.1914 -1.84066,1.83665 -3.53461,3.74872 -5.22656,5.72266 -5.62351,6.51816 -11.75209,12.47252 -18.28906,18.06641 -2.29922,2.01873 -4.5276,4.10393 -6.7544,6.2019 -6.61442,6.21269 -13.52322,11.86113 -20.71435,17.38794 -1.8409,1.43446 -3.65368,2.89843 -5.46094,4.375 C 799.54427,902.1543 790.46828,908.72488 781,915 c -0.66193,0.44167 -1.32387,0.88333 -2.00586,1.33838 C 713.94008,959.62873 641.29463,986.31341 564,997 c -1.13421,0.16516 -2.26843,0.33032 -3.43701,0.50049 C 520.62276,1003.0939 475.87855,1002.8309 436,997 c -1.44456,-0.20139 -2.88923,-0.40204 -4.33398,-0.60205 -87.83697,-12.29935 -171.01787,-47.08163 -262.25977,-120.20264 -2.0477,-1.86819 -4.12025,-3.69609 -6.21094,-5.51562 C 151.08963,860.10905 139.79771,848.89573 129,837 c -1.26457,-1.37479 -1.26457,-1.37479 -2.55469,-2.77734 C 121.06487,828.33023 116.00517,822.21221 111,816 c -0.91339,-1.10993 -1.82748,-2.21928 -2.74219,-3.32813 C 50.57882,742.27985 16.21758,655.64502 3.30139,566.08777 3.02361,564.16353 2.73823,562.2404 2.45215,560.31738 -3.18092,520.57236 -2.90233,475.67501 3,436 3.20615,434.57195 3.4122,433.14389 3.61816,431.71582 10.79642,382.61687 24.15617,335.09659 45,290 c 0.44457,-0.97276 0.88913,-1.94552 1.34717,-2.94775 C 61.014,255.05529 79.51113,224.8735 101,197 c 0.41717,-0.54334 0.83435,-1.08668 1.26416,-1.64648 9.80445,-12.74324 20.21471,-24.91051 31.17432,-36.67432 1.77366,-1.90732 3.53831,-3.82282 5.30371,-5.73779 1.31471,-1.41834 2.62981,-2.83631 3.94531,-4.25391 0.60562,-0.65791 1.21124,-1.31581 1.83521,-1.99365 3.6916,-3.95926 7.53186,-7.60142 11.66088,-11.10327 1.80381,-1.57955 3.47011,-3.23553 5.12891,-4.96558 3.71892,-3.78669 7.80575,-7.05164 11.9375,-10.375 2.44441,-1.99997 4.79183,-4.06019 7.125,-6.1875 5.61225,-5.02826 11.58548,-9.56631 17.625,-14.0625 0.66677,-0.496611 1.33354,-0.993223 2.02051,-1.504883 C 267.3429,48.602468 344.76225,16.558899 427.5625,4.1875 428.85495,3.9926099 430.14739,3.7977197 431.479,3.5969238 454.11077,0.38223335 476.66553,-0.37526484 499.5,-0.3125 Z M 455,240 c -0.88107,0.15565 -1.76215,0.31131 -2.66992,0.47168 C 405.91146,248.72424 360.34902,270.55197 326,303 c -1.30795,1.13029 -2.62036,2.25543 -3.9375,3.375 -8.00789,7.0069 -15.2653,14.56387 -21.88672,22.89062 -1.43441,1.80268 -2.89509,3.58482 -4.38281,5.34375 C 289.54251,342.00922 284.16249,349.82072 279,358 c -0.40863,0.64679 -0.81727,1.29357 -1.23828,1.95996 C 259.68881,388.89096 247.38007,421.29524 242,455 c -0.15936,0.95084 -0.31872,1.90169 -0.48291,2.88135 C 237.13687,484.85288 237.46806,513.08084 242,540 c 0.23348,1.43666 0.23348,1.43666 0.47168,2.90234 C 249.88557,587.00092 269.75352,630.14855 299,664 c 1.03856,1.22198 2.07626,2.44468 3.11328,3.66797 4.85663,6.21766 4.85663,6.21766 10.54932,11.51758 2.54453,3.45216 1.51697,8.35971 1.01266,12.44528 -0.46906,3.07263 -0.98272,6.13481 -1.5112,9.19778 -0.2926,1.74294 -0.2926,1.74294 -0.59112,3.52109 -0.42271,2.51258 -0.84844,5.02465 -1.27686,7.53626 -0.67803,3.9751 -1.34832,7.95143 -2.01629,11.92822 -1.2983,7.72138 -2.60619,15.44113 -3.91526,23.16069 -1.66709,9.83303 -3.33029,19.6667 -4.98387,29.50201 -0.77129,4.58521 -1.55057,9.16903 -2.33134,13.75264 -0.40473,2.40018 -0.8092,4.80039 -1.21338,7.20066 -0.18702,1.08794 -0.37403,2.17589 -0.56671,3.29681 C 294.4655,805.53352 293.75334,810.10553 294,815 c 10.4338,-6.55403 20.71211,-13.34537 31,-20.125 1.42349,-0.9376 1.42349,-0.9376 2.87573,-1.89413 17.61287,-11.6067 35.12653,-23.35719 52.59204,-35.18424 1.63963,-1.10872 3.28086,-2.21509 4.92383,-3.31885 3.4509,-2.32054 6.8793,-4.65465 10.23731,-7.10815 1.04027,-0.7446 2.08054,-1.48919 3.15234,-2.25635 0.85658,-0.6351 1.71316,-1.27021 2.5957,-1.92456 4.72672,-2.14207 9.40354,-0.44576 14.09961,1.22925 0.82081,0.28206 1.64162,0.56412 2.48731,0.85474 1.31726,0.45282 1.31726,0.45282 2.66113,0.91479 8.9351,2.94901 17.91424,5.21077 27.125,7.125 1.14549,0.24194 2.29099,0.48388 3.47119,0.73315 16.46275,3.30443 32.70616,4.33615 49.46631,4.26685 0.92004,-0.002 1.84008,-0.004 2.78799,-0.006 14.04678,-0.0463 27.70002,-0.64214 41.52451,-3.3065 0.89993,-0.16097 1.79985,-0.32194 2.72705,-0.48779 C 571.12753,750.27644 593.69753,742.52918 615,732 c 0.73364,-0.36062 1.46728,-0.72123 2.22314,-1.09277 21.15181,-10.51215 40.85358,-23.94426 57.96045,-40.24317 2.24189,-2.12061 4.51082,-4.12734 6.87891,-6.10156 C 692.32096,675.64022 700.85794,664.82779 709,654 c 0.41991,-0.55236 0.83982,-1.10473 1.27246,-1.67383 C 717.76533,642.41757 724.03419,631.88581 730,621 c 0.54503,-0.9929 0.54503,-0.9929 1.10107,-2.00586 C 746.98963,589.63568 756.45613,557.12588 760,524 c 0.11215,-1.04156 0.2243,-2.08313 0.33984,-3.15625 4.30663,-48.6118 -4.96453,-99.88068 -28.29492,-142.91455 -1.13238,-2.09067 -2.2362,-4.19535 -3.3418,-6.30029 -9.65054,-18.11252 -21.77424,-34.17254 -35.60546,-49.3086 -1.81473,-2.00735 -3.55158,-4.05599 -5.28516,-6.13281 C 647.27112,269.85449 582.45671,241.87322 522,237 c -3.26482,-0.14503 -6.5252,-0.18598 -9.79297,-0.20313 -0.90054,-0.007 -1.80108,-0.014 -2.72891,-0.0213 -2.88859,-0.0174 -5.77698,-0.0239 -8.66562,-0.0256 -1.48106,-10e-4 -1.48106,-10e-4 -2.99203,-0.002 -14.49376,0.0157 -28.55726,0.47833 -42.82047,3.25204 z"
     fill="#00A2E0"
     id="path1"
     style="fill:#f4384a;fill-opacity:1" /></svg>
